<svg xmlns="http://www.w3.org/2000/svg" width="7.57" height="7.38" viewBox="0 0 7.57 7.38">
  <g id="co" transform="translate(-6.572)">
    <path id="Path_16600" data-name="Path 16600" d="M1.459,7.294a.433.433,0,0,0,.464.035l1.863-1,1.862,1a.433.433,0,0,0,.464-.035.449.449,0,0,0,.174-.438L5.93,4.742l1.507-1.5a.456.456,0,0,0,.111-.459.444.444,0,0,0-.355-.305L5.111,2.173,4.179.249a.436.436,0,0,0-.788,0L2.46,2.173.376,2.481a.445.445,0,0,0-.355.305.456.456,0,0,0,.112.459l1.507,1.5L1.285,6.856A.449.449,0,0,0,1.459,7.294Z" transform="translate(6.572 0)" fill="#ff9327"/>
  </g>
</svg>
