<svg xmlns="http://www.w3.org/2000/svg" width="31" height="31" viewBox="0 0 31 31">
    <defs>
        <radialGradient id="radial-gradient" cx=".5" cy=".5" r=".5" gradientUnits="objectBoundingBox">
            <stop offset="0" stop-color="#ffd00d"/>
            <stop offset="1" stop-color="#fca500"/>
        </radialGradient>
        <style>
            .cls-2{stroke:#e28400;fill:url(#radial-gradient)}
        </style>
    </defs>
    <g id="ico__tours" transform="translate(.5 .5)">
        <g id="Group_10842">
            <path id="Path_27130" d="M5.223 19.364v1.118H5.8a9.637 9.637 0 0 1-.58-1.118m18.98 1.118h.58v-1.118a9.637 9.637 0 0 1-.58 1.118m1.173 4.6v.723c.245-.232.484-.47.709-.723zM5.509 26.6a14.931 14.931 0 0 0 18.961 0zm-1.6-1.52c.191.211.382.409.58.6v-.6zm1.316-5.72v1.118H5.8a9.637 9.637 0 0 1-.58-1.118M15 0A15 15 0 0 0 .532 18.962h4.52A10.508 10.508 0 0 1 4.289 15 10.713 10.713 0 0 1 14.836 4.3 1.314 1.314 0 0 1 15 4.289 10.732 10.732 0 0 1 25.711 15a10.508 10.508 0 0 1-.764 3.961h4.514A14.621 14.621 0 0 0 30 15 15.017 15.017 0 0 0 15 0M5.223 19.364v1.118H5.8a9.637 9.637 0 0 1-.58-1.118m0 0v1.118h.58a9.637 9.637 0 0 1-.58-1.118" class="cls-2" transform="translate(0 -.001)"/>
            <path id="Path_27131" d="M26.759 14.838l-4 3.88.709 4.084h-5.129l-.716-.375-.723.373h-5.134l.709-4.084-4.009-3.88a.8.8 0 0 1-.239-.47.779.779 0 0 1 .682-.86l5.53-.8 2.468-4.97a.8.8 0 0 1 .368-.368.744.744 0 0 1 .334-.075h.007a.771.771 0 0 1 .7.443l2.475 4.97 5.536.8a.741.741 0 0 1 .47.245.766.766 0 0 1-.041 1.084" class="cls-2" transform="translate(-2.616 -2.32)"/>
            <path id="Rectangle_2242" d="M0 0H19.52V4.759H0z" class="cls-2" transform="translate(5.168 21.163)"/>
            <path id="Path_27132" d="M4.779 28.81v4.758H.75l.7-1.936v-.007l.157-.43v-.005L.75 28.81z" class="cls-2" transform="translate(-.239 -9.168)"/>
            <path id="Path_27133" d="M40.667 31.619l.7 1.949H37.34V28.81h4.03l-.852 2.366-.007.014z" class="cls-2" transform="translate(-11.881 -9.168)"/>
        </g>
    </g>
</svg>
