<svg xmlns="http://www.w3.org/2000/svg" width="342" height="39" viewBox="0 0 342 39">
  <g id="error" transform="translate(0 -356)">
    <g id="Rectangle_2172" data-name="Rectangle 2172" transform="translate(0 356)" fill="#fffae3" stroke="#ffd100" stroke-width="1">
      <rect width="342" height="39" rx="5" stroke="none"/>
      <rect x="0.5" y="0.5" width="341" height="38" rx="4.5" fill="none"/>
    </g>
    <text id="ツアーが選択されていません_" data-name="ツアーが選択されていません。" transform="translate(32 366)" fill="#707070" font-size="14" font-family="YuGothicUI-Regular, Yu Gothic UI"><tspan x="0" y="15">ツアーが選択されていません。</tspan></text>
    <g id="ico__caution_b" data-name="ico_ caution_b" transform="translate(10 369)">
      <path id="ol" d="M966.626,546.811H954.863a1.118,1.118,0,0,1-.97-1.678l5.882-10.083a1.114,1.114,0,0,1,1.933,0l5.882,10.083a1.118,1.118,0,0,1-.963,1.678Zm-5.832-3.316a.749.749,0,0,0-.791.706v.033a.741.741,0,0,0,.743.739h.049a.739.739,0,0,0,.788-.689c0-.016,0-.032,0-.049a.75.75,0,0,0-.76-.739Zm-.783-5.059.04,2.237.276,2.125h.839l.275-2.125.04-2.237Z" transform="translate(-953.741 -534.492)" fill="#ce9b6a"/>
    </g>
  </g>
</svg>
