<svg id="point" xmlns="http://www.w3.org/2000/svg" width="22" height="22" viewBox="0 0 22 22">
  <rect id="Rectangle_2228" data-name="Rectangle 2228" width="22" height="22" fill="#fff" opacity="0"/>
  <g id="A">
    <g id="Polygon_23" data-name="Polygon 23" transform="translate(1 1)" fill="#ffd00d">
      <path d="M 15.05857086181641 17.95636177062988 C 14.9940710067749 17.95637321472168 14.92951107025146 17.94323348999023 14.86668109893799 17.91731262207031 L 10.57195091247559 16.14592170715332 C 10.38964080810547 16.07073211669922 10.19721126556396 16.03260231018066 10.00000095367432 16.03260231018066 C 9.802790641784668 16.03260231018066 9.610361099243164 16.07073211669922 9.428050994873047 16.14592170715332 L 5.133310794830322 17.91731262207031 C 5.070490837097168 17.94323348999023 5.005920886993408 17.95636177062988 4.94140100479126 17.95636177062988 C 4.803761005401611 17.95636177062988 4.669620990753174 17.89670181274414 4.57335090637207 17.79267311096191 C 4.506680965423584 17.72062301635742 4.430150985717773 17.59685325622559 4.444170951843262 17.41637229919434 L 4.803380966186523 12.79172229766846 C 4.834331035614014 12.39315223693848 4.70849084854126 12.00616264343262 4.44904088973999 11.70203304290771 L 1.437801003456116 8.172332763671875 C 1.273921012878418 7.980232715606689 1.31666100025177 7.773402690887451 1.342640995979309 7.693392753601074 C 1.36863100528717 7.613382816314697 1.455570936203003 7.420892715454102 1.701061010360718 7.361732482910156 L 6.215850830078125 6.27374267578125 C 6.604011058807373 6.180202484130859 6.932971000671387 5.94138240814209 7.142140865325928 5.601292610168457 L 9.574100494384766 1.646952629089355 C 9.70625114440918 1.432082653045654 9.915970802307129 1.408882617950439 10.00000095367432 1.408882617950439 C 10.0840311050415 1.408882617950439 10.29375076293945 1.432082653045654 10.42590141296387 1.646952629089355 L 12.85786056518555 5.601282596588135 C 13.0670108795166 5.941372871398926 13.39597129821777 6.180192470550537 13.78413105010986 6.27374267578125 L 18.29894065856934 7.361742496490479 C 18.54444122314453 7.420892715454102 18.63137054443359 7.613382816314697 18.6573600769043 7.693392753601074 C 18.68334007263184 7.773392677307129 18.72608184814453 7.980222702026367 18.56219100952148 8.172322273254395 L 15.55096054077148 11.70203304290771 C 15.29151058197021 12.00616264343262 15.16567134857178 12.39315223693848 15.19662094116211 12.79171276092529 L 15.55583095550537 17.41637229919434 C 15.5698413848877 17.5968017578125 15.49331092834473 17.72057342529297 15.42663097381592 17.79263305664063 C 15.33035087585449 17.89668273925781 15.19620132446289 17.95636177062988 15.05857086181641 17.95636177062988 Z" stroke="none"/>
      <path d="M 9.999855041503906 1.909120559692383 L 7.568031311035156 5.863232612609863 C 7.289140701293945 6.316682815551758 6.850530624389648 6.635102272033691 6.332990646362305 6.759832382202148 L 1.818387985229492 7.848042488098145 L 4.82943058013916 11.37753295898438 C 5.175360679626465 11.78303241729736 5.343140602111816 12.29901313781738 5.301880836486816 12.83044242858887 L 4.942930221557617 17.45498085021973 L 9.237370491027832 15.68371295928955 C 9.480450630187988 15.58344268798828 9.737040519714355 15.53260231018066 10.00000095367432 15.53260231018066 C 10.26296138763428 15.53260231018066 10.51955127716064 15.58344268798828 10.76260089874268 15.68370246887207 L 15.05730819702148 17.45480537414551 L 14.69812107086182 12.83042240142822 C 14.65685081481934 12.29899215698242 14.82465076446533 11.78300285339355 15.17058086395264 11.37752246856689 L 18.18152236938477 7.847755432128906 L 13.6669807434082 6.759822845458984 C 13.1494312286377 6.635092735290527 12.71083068847656 6.316662788391113 12.43196105957031 5.863223075866699 L 9.999855041503906 1.909120559692383 M 9.999997138977051 0.9088821411132813 C 10.32828807830811 0.9088821411132813 10.65658092498779 1.067592620849609 10.8518009185791 1.385013580322266 L 13.2837610244751 5.339352607727051 C 13.42225074768066 5.564542770385742 13.6442813873291 5.725722312927246 13.90128135681152 5.787662506103516 L 18.41608047485352 6.875652313232422 C 19.14140129089355 7.050442695617676 19.42680168151855 7.929252624511719 18.94257164001465 8.496842384338379 L 15.93135070800781 12.02654266357422 C 15.75957107543945 12.22789287567139 15.67463111877441 12.48913192749023 15.6951208114624 12.75300216674805 L 16.05433082580566 17.37765312194824 C 16.10139083862305 17.98362159729004 15.61379623413086 18.45636558532715 15.05859184265137 18.45636558532715 C 14.93271827697754 18.45636558532715 14.80341815948486 18.43208312988281 14.6760311126709 18.37954330444336 L 10.3813009262085 16.60815238952637 C 10.25919055938721 16.55778694152832 10.12959575653076 16.5326042175293 10.00000095367432 16.5326042175293 C 9.870406150817871 16.5326042175293 9.740811347961426 16.55778694152832 9.618700981140137 16.60815238952637 L 5.32396125793457 18.37954330444336 C 5.196616172790527 18.43206596374512 5.067234039306641 18.45636558532715 4.941400527954102 18.45636558532715 C 4.386144638061523 18.45636558532715 3.898597717285156 17.98366546630859 3.945671081542969 17.37765312194824 L 4.30488109588623 12.75300216674805 C 4.325370788574219 12.48913192749023 4.240421295166016 12.22789287567139 4.06865119934082 12.02654266357422 L 1.057430267333984 8.496842384338379 C 0.5732002258300781 7.929252624511719 0.8586006164550781 7.050442695617676 1.583921432495117 6.875652313232422 L 6.098711013793945 5.787662506103516 C 6.355720520019531 5.725722312927246 6.577740669250488 5.564542770385742 6.716240882873535 5.339352607727051 L 9.148200988769531 1.385013580322266 C 9.343416213989258 1.067592620849609 9.671706199645996 0.9088821411132813 9.999997138977051 0.9088821411132813 Z" stroke="none" fill="#e68f00"/>
    </g>
  </g>
</svg>
