<svg xmlns="http://www.w3.org/2000/svg" xmlns:xlink="http://www.w3.org/1999/xlink" width="96" height="96" viewBox="0 0 96 96">
  <defs>
    <filter id="Ellipse_36" x="0" y="0" width="96" height="96" filterUnits="userSpaceOnUse">
      <feOffset input="SourceAlpha"/>
      <feGaussianBlur stdDeviation="5" result="blur"/>
      <feFlood flood-opacity="0.2"/>
      <feComposite operator="in" in2="blur"/>
      <feComposite in="SourceGraphic"/>
    </filter>
    <filter id="データ_更新" x="27" y="26" width="42" height="45" filterUnits="userSpaceOnUse">
      <feOffset input="SourceAlpha"/>
      <feGaussianBlur stdDeviation="3" result="blur-2"/>
      <feFlood flood-opacity="0.161"/>
      <feComposite operator="in" in2="blur-2"/>
      <feComposite in="SourceGraphic"/>
    </filter>
  </defs>
  <g id="_FIX_マイページリンク" data-name="[FIX]マイページリンク" transform="translate(3 -693)">
    <g transform="matrix(1, 0, 0, 1, -3, 693)" filter="url(#Ellipse_36)">
      <g id="Ellipse_36-2" data-name="Ellipse 36" transform="translate(15 15)" fill="#fff" stroke="#fff" stroke-width="2">
        <circle cx="33" cy="33" r="33" stroke="none"/>
        <circle cx="33" cy="33" r="32" fill="none"/>
      </g>
    </g>
    <g id="ico_reload" transform="translate(23.012 713.92)">
      <g id="ico_reload-2" data-name="ico_reload" transform="translate(-46.865)" opacity="0.2">
        <path id="Path_16615" data-name="Path 16615" d="M194.364,11.435a22.056,22.056,0,0,0-10.838-5.954L183.813,0,173,5.7,170.11,7.227l-.536.281.854.458,4.037,2.173,8.571,4.612.241-4.534a17.483,17.483,0,0,1,11.467,23.811l4.27,1.855a22.145,22.145,0,0,0-4.651-24.448Z" transform="translate(-109.729)" fill="#2b63c6"/>
        <path id="Path_16616" data-name="Path 16616" d="M73.245,198.521l-8.579-4.613-.24,4.535a17.482,17.482,0,0,1-11.467-23.811l-4.27-1.854A22.11,22.11,0,0,0,64.177,203.17l-.287,5.49,10.807-5.7,2.9-1.529.528-.28-.846-.458Z" transform="translate(0 -154.501)" fill="#2b63c6"/>
      </g>
    </g>
    <g transform="matrix(1, 0, 0, 1, -3, 693)" filter="url(#データ_更新)">
      <text id="データ_更新-2" data-name="データ
更新" transform="translate(48 46)" fill="#2b63c6" font-size="10" font-family="YuGothicUI-Bold, Yu Gothic UI" font-weight="700"><tspan x="-11.182" y="0">データ</tspan><tspan y="0" font-family="SegoeUI-Bold, Segoe UI"></tspan><tspan x="-10" y="13">更新</tspan></text>
    </g>
  </g>
</svg>
